<svg xmlns="http://www.w3.org/2000/svg" viewBox="0 0 627.91 49.39"><defs><style>.cls-1{fill:#7f7d7c;}</style></defs><title>Ресурс 3</title><g id="Слой_2" data-name="Слой 2"><g id="Layer_1" data-name="Layer 1"><path class="cls-1" d="M3.75,1.32V44.85H32.86v3.23H0V1.32Z"/><path class="cls-1" d="M53,34.84,47.16,48.07h-4L64.48,1.32h3.69L89.44,48.07h-4L79.62,34.84ZM68.56,10,66.39,4.68h-.13L64.08,10,54.47,31.68H78.18Z"/><path class="cls-1" d="M101,24.63c0-14.56,9-24.63,24.1-24.63,14,0,19.69,8.36,21.07,14.62l-3.82.53c-1.19-5.47-6-12-17.52-12-12.45,0-20.09,8.63-20.09,21.6,0,12.12,7,21.4,20,21.4,14.42,0,18.57-10.54,18.57-16.33v-2.5H124.54V24.17h22.19V48.07h-2.9l-.4-9.94c-2.9,6.91-9.75,11.26-19.3,11.26C109.66,49.39,101,39,101,24.63Z"/><path class="cls-1" d="M169,30.23c0,9.48,5.8,15.87,16.33,15.87s16.4-6.39,16.4-15.87V1.32h3.75v29c0,11.33-7.24,19-20.15,19s-20.09-7.71-20.09-19v-29H169Z"/><path class="cls-1" d="M230.78,1.32l29.37,38a40.48,40.48,0,0,1,3,4.54h.07c-.07-1.58-.07-3.16-.07-5.14V1.32h3.42V48.07h-4.28L232.62,9.75a43.76,43.76,0,0,1-3-4.48h-.07c.07,1.52.07,3.1.07,5v37.8h-3.42V1.32Z"/><path class="cls-1" d="M292.49,34.84l-5.86,13.24h-4L303.95,1.32h3.69l21.27,46.76h-4l-5.86-13.24ZM308,10l-2.17-5.33h-.13L303.55,10l-9.61,21.67h23.71Z"/><path class="cls-1" d="M411.36,14.42c0,8.43-6,13.7-15.48,13.7h-18v20h-3.76V1.32h22C405.57,1.32,411.36,6.32,411.36,14.42Zm-4,0c0-6.19-4.35-9.94-11.59-9.94H377.91V25H396C403,25,407.41,20.88,407.41,14.42Z"/><path class="cls-1" d="M462.6,48.07h-35V1.32h34.57V4.48H431.32v18H461v3.16h-29.7V44.91H462.6Z"/><path class="cls-1" d="M485.72,34.84l-5.86,13.24h-4L497.18,1.32h3.69l21.27,46.76h-4l-5.86-13.24ZM501.26,10l-2.17-5.33H499L496.78,10l-9.61,21.67h23.71Z"/><path class="cls-1" d="M542,27.53V48.07h-3.75V1.32h22.26c11.33,0,14.95,6.13,14.95,13,0,5.93-3.36,11.46-11.92,12.71l13.37,21h-4.35l-13.1-20.55Zm18.24-3.16c8,0,11.33-4.41,11.33-10s-3.1-9.88-11.33-9.88H542V24.37Z"/><path class="cls-1" d="M598.8,1.32V44.85h29.11v3.23H595V1.32Z"/></g></g></svg>