<svg xmlns="http://www.w3.org/2000/svg" xmlns:xlink="http://www.w3.org/1999/xlink" viewBox="0 0 93 93"><defs><style>.cls-1{fill:#fff;}.cls-2{fill:#ebe1e1;}.cls-3{mask:url(#mask);}</style><mask id="mask" x="0" y="0" width="93" height="100.23" maskUnits="userSpaceOnUse"><g id="SVGID"><path class="cls-1" d="M42.77,100.23,44.46,98c0-.05,1.32-2,5.35-13.72C53.54,73.45,57,49.25,57.75,44c-2.47-1-4.42-2.8-6.88-5.11-2.79-2.61-6.12-2.19-10.24,1.24a42.52,42.52,0,0,1-4.18,3.09c.7,5.54,5.26,40.85,7.86,48.19a9.13,9.13,0,0,1,.73,4,2,2,0,0,1-1.23,1.73c-1.68.69-4.27-1.14-5-1.71l-.14-.11-.1-.15c-.07-.1-6.73-10.64-12.67-21a157.26,157.26,0,0,1-8-15.64,27.63,27.63,0,0,1-4.41,4.3c-2.56,2.07-5.74,4.64.08,13.56C19.24,85,35.27,93,35.44,93.11l-.88,1.78c-.68-.34-16.69-8.35-22.64-17.47C5.63,67.8,8.79,64,12.25,61.23c3-2.4,4.78-4.48,5.4-6.19.4-2.53,1.28-7,2.77-9.32,2.09-3.27,6.82-3.83,10.23-3.32a8.41,8.41,0,0,0,4-.56l.26-.11.6-.28a41.37,41.37,0,0,0,3.81-2.83c6.17-5.15,10.37-3.5,12.81-1.21,3.94,3.69,6.1,5.7,11,5.36,6.41-.45,9.92,2.06,11.41,8.13C76,56.65,78,60.3,80.66,62a8.08,8.08,0,0,1,3.69,5.73c.46,3.54-1.35,7.58-5.37,12-8.44,9.33-24,15-24.65,15.27l-.55-1.52c-.75.87-1.23,1.41-1.38,1.58l-2.3,3.39ZM59.68,44.56c-.81,5.87-4.22,29.41-8,40.38-2.31,6.72-3.75,10.32-4.6,12.23l1.81-.43,2-2.92A150.19,150.19,0,0,0,64.54,75.71a131.15,131.15,0,0,0,10.2-18.13,34.79,34.79,0,0,1-2.08-6.22c-1.26-5.14-3.88-7-9.34-6.62A14,14,0,0,1,59.68,44.56ZM40.14,93.94A6.16,6.16,0,0,0,43,95.3s0-.07,0-.18a7.26,7.26,0,0,0-.63-3c-2.63-7.43-7-41.07-7.89-48.1a9.9,9.9,0,0,1-4.19.37c-2.27-.34-6.58-.21-8.27,2.43s-2.52,8.78-2.69,10.08a146.38,146.38,0,0,0,8.22,16.26C33.14,82.81,39.29,92.61,40.14,93.94ZM75.92,59.79a143.33,143.33,0,0,1-9.72,17A167,167,0,0,1,54.29,93c3-1.17,16-6.56,23.23-14.5,3.56-3.93,5.24-7.54,4.87-10.43a6.12,6.12,0,0,0-2.8-4.32A12.23,12.23,0,0,1,75.92,59.79Z"/></g></mask></defs><title>Ресурс 2</title><g id="Слой_2" data-name="Слой 2"><g id="Layer_1" data-name="Layer 1"><circle class="cls-2" cx="46.5" cy="46.5" r="46.5"/><g class="cls-3"><circle class="cls-1" cx="46.5" cy="46.5" r="46.5"/></g></g></g></svg>