<?xml version="1.0" standalone="no"?>
<!DOCTYPE svg PUBLIC "-//W3C//DTD SVG 1.1//EN" "http://www.w3.org/Graphics/SVG/1.1/DTD/svg11.dtd" >
<svg xmlns="http://www.w3.org/2000/svg">
<metadata>Generated by IcoMoon</metadata>
<defs>
<font id="icomoon" horiz-adv-x="1024">
<font-face units-per-em="1024" ascent="960" descent="-64" />
<missing-glyph horiz-adv-x="1024" />
<glyph unicode="&#x20;" horiz-adv-x="512" d="" />
<glyph unicode="&#xe900;" glyph-name="m-chat" d="M511.826 960.007c-270.909 0-491.346-197.038-491.346-439.101s220.436-439.194 491.346-439.194c55.345 0.003 108.739 8.353 158.993 23.859l-3.816-1.014 167.66-168.55v253.819c107.418 83.64 168.858 203.848 168.858 331.080 0 242.063-220.529 439.101-491.694 439.101zM806.113 213.101l-7.055-5.407v-185.19l-122.194 122.706-10.24-3.308c-46.222-15.456-99.442-24.376-154.745-24.381h-0.002c-251.197 0-455.68 180.992-455.68 403.374s204.431 403.272 455.629 403.272c251.443 0 455.997-180.91 455.997-403.261 0-118.63-58.89-230.779-161.71-307.814zM751.729 532.231h-479.293c-9.897 0-17.92-8.023-17.92-17.92s8.023-17.92 17.92-17.92v0h479.293c9.897 0 17.92 8.023 17.92 17.92s-8.023 17.92-17.92 17.92v0zM751.729 411.757h-479.293c-9.638-0.336-17.324-8.23-17.324-17.92s7.686-17.584 17.294-17.919l0.031-0.001h479.293c9.638 0.336 17.324 8.23 17.324 17.92s-7.686 17.584-17.294 17.919l-0.031 0.001zM751.729 652.479h-479.293c-9.897 0-17.92-8.023-17.92-17.92s8.023-17.92 17.92-17.92h479.293c9.897 0 17.92 8.023 17.92 17.92s-8.023 17.92-17.92 17.92v0z" />
<glyph unicode="&#xe901;" glyph-name="m-email" d="M11.909 780.806c-0.003 0-0.007 0-0.010 0-6.568 0-11.893-5.321-11.899-11.888v-641.834c0.012-6.563 5.334-11.878 11.899-11.878 0.004 0 0.007 0 0.011 0h1000.181c0.003 0 0.007 0 0.010 0 6.564 0 11.887 5.316 11.899 11.877v641.834c-0.006 6.567-5.331 11.889-11.899 11.889-0.004 0-0.007 0-0.011 0h-1000.181zM43.54 757.039h936.96l-468.5-412.293zM23.818 742.549l322.97-283.771-322.97-303.831v587.602zM1000.192 742.549v-587.602l-322.98 303.831zM364.657 442.804l139.53-122.573c2.081-1.811 4.818-2.915 7.813-2.915s5.733 1.104 7.828 2.927l-0.014-0.012 139.54 122.573 322.97-303.831h-940.646z" />
<glyph unicode="&#xe902;" glyph-name="bag" d="M853.333 650.411h-151.68v107.179c0.124 2.592 0.194 5.629 0.194 8.682 0 103.769-81.488 188.506-183.964 193.709l-0.465 0.019c-102.941-5.222-184.429-89.959-184.429-193.728 0-3.054 0.071-6.091 0.21-9.11l-0.016 0.428v-107.179h-162.517v-714.411h682.667v714.411zM376.533 757.589c-0.096 1.99-0.15 4.323-0.15 6.668 0 79.32 62.27 144.097 140.592 148.112l0.358 0.015c78.68-4.030 140.95-68.806 140.95-148.127 0-2.345-0.054-4.678-0.162-6.996l0.012 0.328v-107.179h-281.6v107.179zM810.026-16.384h-596.011v619.179h119.168v-142.891h43.349v142.891h281.6v-142.891h43.349v142.891h108.373v-619.179z" />
<glyph unicode="&#xe903;" glyph-name="account" d="M938.667-39.005c0-13.868-11.242-25.109-25.109-25.109s-25.109 11.242-25.109 25.109v0c0.012 1.109 0.018 2.419 0.018 3.731 0 208.684-168.089 378.108-376.262 380.267l-0.205 0.002c-208.396-2.137-376.509-171.571-376.509-380.269 0-1.312 0.007-2.622 0.020-3.931l-0.002 0.2c0-13.856-11.232-25.088-25.088-25.088s-25.088 11.232-25.088 25.088v0c-0.014 1.274-0.021 2.78-0.021 4.288 0 236.505 190.523 428.511 426.46 430.911l0.228 0.002c236.165-2.401 426.688-194.407 426.688-430.912 0-1.508-0.008-3.013-0.023-4.517l0.002 0.23zM512 447.395c-138.918 1.441-250.978 114.39-250.978 253.513 0 0.875 0.004 1.748 0.013 2.621l-0.001-0.133c-0.041 1.687-0.064 3.675-0.064 5.668 0 138.651 112.399 251.051 251.051 251.051s251.051-112.399 251.051-251.051c0-1.993-0.023-3.981-0.069-5.963l0.005 0.294c0.008-0.739 0.012-1.613 0.012-2.487 0-139.137-112.083-252.096-250.886-253.512l-0.134-0.001zM512 498.595c111.144 1.153 200.799 91.52 200.799 202.827 0 0.694-0.003 1.387-0.010 2.079l0.001-0.106c0.027 1.232 0.043 2.684 0.043 4.14 0 110.916-89.916 200.832-200.832 200.832s-200.832-89.916-200.832-200.832c0-1.455 0.015-2.907 0.046-4.355l-0.004 0.216c-0.006-0.586-0.010-1.279-0.010-1.973 0-111.307 89.655-201.674 200.69-202.826l0.109-0.001z" />
<glyph unicode="&#xe906;" glyph-name="phone" d="M692.023 187.576l80.085 89.003c13.031 6.291 28.337 9.968 44.501 9.968s31.471-3.677 45.127-10.239l-0.626 0.271c61.415-44.623 114.214-96.013 158.889-153.987l1.325-1.789c1.446-8.868 2.273-19.089 2.273-29.503 0-40.497-12.496-78.074-33.842-109.088l0.423 0.65c-35.584-57.856-146.859-66.731-284.843 0-249.173 115.499-538.667 404.992-658.603 658.645-66.773 137.984-57.856 249.216 4.267 284.8 30.141 21.035 67.544 33.61 107.884 33.61 10.674 0 21.141-0.88 31.335-2.572l-1.107 0.152c55.697-48.324 105.34-100.782 149.48-157.72l1.859-2.493c7.77-12.695 12.37-28.061 12.37-44.501s-4.601-31.806-12.586-44.88l0.215 0.379-89.003-84.565s-31.147-22.229 22.229-93.44c98.054-119.378 202.988-225.733 316.796-321.916l3.631-2.99c75.648-48.939 97.92-17.792 97.92-17.792z" />
<glyph unicode="&#xe907;" glyph-name="search" horiz-adv-x="1025" d="M384.961 949.108l7.508-0.423 7.508-0.582 7.508-0.74 7.508-0.899 7.456-1.058 7.456-1.269 7.456-1.375 7.403-1.533 6.451-1.533 6.451-1.586 6.345-1.692 6.345-1.851 6.292-1.904 6.187-2.062 6.187-2.168 6.134-2.221 6.081-2.379 6.028-2.432 5.975-2.591 5.869-2.644 5.869-2.802 5.816-2.855 5.711-3.014 5.658-3.067 5.658-3.173 5.552-3.278 5.446-3.384 5.446-3.49 5.34-3.596 5.34-3.648 5.235-3.807 5.129-3.86 5.129-3.966 5.023-4.071 4.97-4.124 4.865-4.283 4.812-4.336 4.759-4.442 4.653-4.547 4.6-4.6 4.547-4.706 4.442-4.812 4.336-4.917 4.283-4.97 4.23-5.076 4.124-5.129 4.071-5.288 3.966-5.34 4.389-6.134 4.23-6.292 4.124-6.292 3.966-6.451 3.86-6.504 3.648-6.557 3.543-6.662 3.437-6.715 3.225-6.768 3.12-6.874 2.961-6.927 2.802-6.98 2.697-7.033 2.485-7.033 2.379-7.138 2.221-7.191 2.062-7.244 1.904-7.244 1.798-7.297 1.586-7.35 1.481-7.35 1.322-7.403 1.11-7.403 1.005-7.456 0.846-7.456 0.687-7.508 0.529-7.456 0.423-7.508 0.212-7.508 0.053-7.508-0.106-7.561-0.264-7.508-0.423-7.508-0.582-7.508-0.74-7.508-0.899-7.456-1.058-7.508-1.216-7.456-1.375-7.403-1.586-7.403-0.952-4.124-0.952-4.071-1.005-4.124-1.11-4.019-1.11-4.071-1.163-4.019-1.163-3.966-1.269-4.019-1.269-3.966-1.322-3.913-1.375-3.913-1.428-3.913-2.961-7.72-1.586-3.86-1.586-3.807-3.278-7.614-1.745-3.754-1.745-3.701-1.798-3.754-1.851-3.648-1.904-3.701-1.956-3.648-1.956-3.596-2.062-3.648-2.062-3.543-2.062-3.596-2.168-3.543-4.442-6.98-2.274-3.49-4.653-6.874-4.865-6.768-2.485-3.384-2.538-3.331-2.538-3.278-2.644-3.331-6.768-8.407 374.258-374.258-18.771-18.771-0.74-0.793-0.793-0.74-0.74-0.793-2.908-2.908-0.74-0.687-0.687-0.74-0.687-0.635-1.322-1.322-0.687-0.635-0.635-0.635-0.582-0.635-0.635-0.582-0.582-0.582-0.582-0.529-2.538-2.538-0.476-0.423-0.423-0.423-0.423-0.37-0.74-0.74-0.37-0.317-0.582-0.582-0.264-0.212-0.264-0.264-0.212-0.159-0.317-0.317-0.159-0.106-0.106-0.053-0.106-0.106-0.159 0.159-0.529 0.476-0.74 0.793-1.11 1.058-1.375 1.322-1.692 1.639-1.904 1.956-2.221 2.168-2.485 2.485-2.75 2.697-2.961 2.961-3.278 3.225-7.191 7.191-3.966 3.913-13.113 13.113-9.835 9.729-5.182 5.182-5.34 5.393-5.552 5.552-5.764 5.711-5.869 5.869-6.081 6.028-19.088 19.088-6.662 6.61-27.813 27.813-7.244 7.191-7.297 7.35-7.456 7.403-7.508 7.561-7.614 7.561-194.532 194.532-8.407-6.768-6.398-5.023-6.504-4.865-6.61-4.706-6.715-4.6-6.768-4.389-6.821-4.23-6.98-4.071-6.98-3.913-7.138-3.754-7.138-3.596-7.244-3.437-7.297-3.278-7.35-3.067-7.403-2.961-7.508-2.75-7.508-2.591-7.614-2.432-7.614-2.274-7.667-2.062-7.72-1.956-7.72-1.745-7.826-1.533-7.826-1.428-7.826-1.216-7.879-1.058-7.879-0.846-7.931-0.74-7.931-0.476-7.931-0.37-7.931-0.159h-7.984l-7.984 0.212-7.931 0.37-7.984 0.529-7.931 0.74-7.984 0.899-7.931 1.11-7.931 1.269-7.879 1.481-7.931 1.639-6.451 1.533-6.451 1.586-6.345 1.692-6.345 1.851-6.292 1.904-6.187 2.062-6.187 2.168-6.134 2.221-6.081 2.379-6.028 2.432-5.975 2.591-5.869 2.644-5.869 2.802-5.816 2.855-5.711 3.014-5.658 3.067-5.658 3.173-5.552 3.278-5.446 3.384-5.446 3.49-5.393 3.596-5.288 3.648-5.235 3.754-5.129 3.913-5.129 3.966-5.023 4.071-4.97 4.124-4.865 4.283-4.812 4.336-4.759 4.442-4.653 4.494-4.6 4.653-4.494 4.706-4.494 4.812-4.336 4.917-4.283 4.97-4.23 5.076-4.124 5.129-4.071 5.288-3.966 5.34-4.389 6.134-4.23 6.292-4.124 6.292-3.966 6.451-3.86 6.504-3.648 6.557-3.543 6.662-3.437 6.715-3.225 6.768-3.12 6.874-2.961 6.927-2.802 6.98-2.644 6.98-2.538 7.085-2.379 7.138-2.221 7.191-2.062 7.244-1.904 7.244-1.798 7.297-1.586 7.35-1.481 7.35-1.322 7.403-1.11 7.403-1.005 7.456-0.846 7.456-0.687 7.456-0.529 7.508-0.423 7.508-0.212 7.508-0.053 7.508 0.106 7.561 0.264 7.508 0.423 7.508 0.582 7.508 0.74 7.508 0.899 7.456 1.058 7.508 1.216 7.456 1.375 7.403 1.586 7.403 1.481 6.451 1.639 6.451 1.692 6.398 1.798 6.292 1.956 6.292 2.009 6.239 2.168 6.187 2.274 6.134 2.327 6.081 2.485 5.975 2.538 5.975 2.697 5.922 2.75 5.869 2.908 5.764 2.961 5.764 3.067 5.658 3.225 5.605 3.278 5.552 3.384 5.499 3.437 5.446 3.596 5.34 3.701 5.288 3.754 5.235 3.86 5.182 3.966 5.076 4.071 5.023 4.177 4.97 4.23 4.865 4.336 4.865 4.442 4.706 4.547 4.706 4.6 4.6 4.759 4.494 4.812 4.442 4.865 4.389 4.97 4.283 5.076 4.177 5.182 4.177 5.235 4.019 5.34 3.966 6.187 4.389 6.239 4.283 6.345 4.124 6.398 3.966 6.504 3.807 6.61 3.701 6.61 3.543 6.715 3.384 6.821 3.278 6.821 3.067 6.927 2.961 6.98 2.855 7.033 2.644 7.085 2.538 7.138 2.327 7.138 2.221 7.244 2.062 7.244 1.956 7.297 1.745 7.35 1.639 7.35 1.428 7.403 1.322 7.456 1.163 7.403 1.005 7.456 0.846 7.508 0.687 7.508 0.529 7.508 0.37 7.508 0.212 7.508 0.053 7.508-0.106 7.508-0.212zM358.312 896.285l-4.547-0.212-4.494-0.264-4.547-0.317-4.494-0.37-4.494-0.476-4.547-0.529-4.494-0.582-4.494-0.687-4.494-0.74-9.571-1.798-9.412-2.062-9.359-2.327-9.2-2.644-9.042-2.908-8.989-3.173-8.777-3.437-8.672-3.701-8.566-3.966-8.354-4.177-8.249-4.442-8.090-4.706-7.879-4.917-7.773-5.129-7.561-5.393-7.403-5.605-7.191-5.816-7.033-6.028-6.874-6.239-6.61-6.451-6.451-6.662-6.239-6.821-6.028-7.033-5.816-7.244-5.605-7.403-5.393-7.561-5.182-7.72-4.917-7.931-4.653-8.090-4.494-8.196-4.177-8.407-3.966-8.513-3.701-8.672-3.437-8.83-3.173-8.936-2.908-9.095-2.591-9.2-2.379-9.306-2.062-9.465-1.798-9.571-1.586-10.152-1.163-10.152-0.899-10.205-0.476-10.099-0.212-10.099 0.159-10.046 0.529-10.046 0.793-9.941 1.163-9.941 1.481-9.835 1.745-9.729 2.115-9.676 2.432-9.571 2.697-9.518 3.014-9.412 3.331-9.253 3.596-9.148 3.913-9.042 4.177-8.883 4.494-8.777 4.706-8.619 5.023-8.46 5.288-8.302 5.605-8.090 5.816-7.984 6.081-7.72 6.345-7.614 6.61-7.35 6.821-7.191 7.085-6.927 7.35-6.768 7.561-6.504 7.773-6.292 8.037-6.028 8.249-5.764 8.46-5.552 8.672-5.235 8.936-5.023 9.095-4.706 9.306-4.442 3.543-1.586 3.596-1.533 3.596-1.481 3.596-1.428 3.648-1.428 3.648-1.375 3.701-1.322 3.701-1.216 3.701-1.269 3.701-1.163 3.754-1.11 7.508-2.115 7.614-1.904 3.754-0.899 3.86-0.846 3.807-0.793 3.807-0.74 3.86-0.687 3.807-0.635 3.86-0.635 7.72-1.058 7.72-0.846 7.72-0.635 3.807-0.264 3.86-0.212 3.86-0.159 3.86-0.106 3.86-0.053h3.807l3.807 0.053 3.86 0.106 3.807 0.159 3.807 0.212 7.561 0.529 5.711 1.322 5.658 1.375 11.104 2.855 5.446 1.481 5.393 1.481 5.393 1.586 5.288 1.586 5.235 1.639 5.129 1.639 5.129 1.692 5.076 1.745 4.97 1.798 9.835 3.701 4.812 1.904 4.759 1.956 4.706 1.956 4.6 2.009 4.6 2.062 8.989 4.23 4.389 2.168 4.336 2.221 4.283 2.274 4.23 2.274 4.177 2.327 4.124 2.379 8.037 4.865 3.913 2.485 3.86 2.538 3.807 2.538 3.754 2.591 3.701 2.644 3.648 2.697 3.543 2.697 3.543 2.75 3.437 2.802 3.437 2.855 3.966 3.49 3.913 3.543 3.807 3.701 3.754 3.754 3.648 3.86 3.543 3.913 3.49 4.019 3.437 4.071 3.278 4.177 3.225 4.177 3.173 4.283 3.067 4.336 2.961 4.389 2.855 4.389 2.855 4.442 2.697 4.494 2.644 4.547 2.538 4.547 2.485 4.547 2.379 4.547 2.274 4.6 2.221 4.547 2.115 4.6 2.062 4.6 1.956 4.547 1.851 4.547 1.798 4.494 1.692 4.547 1.586 4.442 1.533 4.442 1.481 4.389 1.375 4.336 1.269 4.283 1.163 4.23 1.11 4.177 1.005 4.124 0.952 4.019 0.846 3.966 0.793 3.913 0.687 3.754 1.533 10.205 1.216 10.152 0.899 10.152 0.476 10.152 0.212 10.099-0.159 10.046-0.529 10.046-0.793 9.941-1.163 9.888-1.481 9.835-1.798 9.782-2.062 9.676-2.432 9.571-2.697 9.518-3.014 9.359-3.331 9.306-3.596 9.148-3.913 9.042-4.177 8.883-4.494 8.777-4.759 8.566-5.023 8.46-5.288 8.302-5.552 8.143-5.816 7.931-6.081 7.773-6.345 7.561-6.61 7.403-6.821 7.191-7.085 6.927-7.35 6.768-7.561 6.504-7.773 6.239-8.037 6.028-8.249 5.816-8.46 5.499-8.672 5.288-8.936 4.97-9.095 4.759-9.306 4.389-4.177 1.904-4.23 1.798-8.46 3.384-8.566 3.173-4.283 1.428-4.336 1.428-4.336 1.375-4.336 1.269-4.389 1.216-4.336 1.11-4.389 1.11-4.442 1.005-4.389 0.952-4.442 0.899-4.442 0.793-4.442 0.74-4.494 0.687-4.442 0.635-4.494 0.529-4.494 0.476-4.494 0.423-4.494 0.37-4.494 0.264-4.494 0.212-4.547 0.159-4.494 0.106h-4.494l-4.547-0.053-4.494-0.106z" />
<glyph unicode="&#xe908;" glyph-name="m-cart" d="M17.136 893.436c-0.103 0.003-0.225 0.005-0.346 0.005-6.475 0-11.725-5.249-11.725-11.725s5.249-11.725 11.725-11.725c0.122 0 0.243 0.002 0.364 0.006h131.863l126.72-594.534c-0.181-0.793-0.284-1.704-0.284-2.639 0-6.843 5.547-12.39 12.39-12.39 0.147 0 0.293 0.003 0.438 0.008l-0.021-0.001h589.414c0.103-0.003 0.225-0.005 0.346-0.005 6.475 0 11.725 5.249 11.725 11.725s-5.249 11.725-11.725 11.725c-0.122 0-0.243-0.002-0.364-0.006h-579.812l-25.047 117.228h652.032c5.507 0.148 10.085 3.955 11.399 9.071l0.018 0.084 82.514 351.662c0.111 0.622 0.175 1.337 0.175 2.068 0 6.542-5.112 11.89-11.56 12.267l-0.033 0.002h-814.49l-22.835 108.022c-1.348 5.19-5.917 8.989-11.399 9.154h-141.484zM198.016 752.769h794.624l-77.015-328.212h-647.987zM406.154 190.112c-51.567-0.296-93.256-42.168-93.256-93.776 0-51.792 41.986-93.778 93.778-93.778s93.777 41.985 93.778 93.776v0c-0.244 51.844-42.329 93.778-94.207 93.778-0.033 0-0.065 0-0.098 0h0.005zM759.792 190.112c-51.563-0.302-93.245-42.171-93.245-93.776 0-51.792 41.986-93.778 93.778-93.778s93.777 41.985 93.778 93.776v0c-0.244 51.844-42.329 93.778-94.207 93.778-0.036 0-0.073 0-0.109 0h0.006zM406.154 166.662c38.669-0.227 69.929-31.626 69.929-70.327 0-38.841-31.487-70.328-70.328-70.328s-70.328 31.486-70.328 70.327v0c0.011 38.844 31.503 70.329 70.349 70.329 0.133 0 0.266 0 0.399-0.001h-0.020zM759.792 166.662c38.669-0.227 69.929-31.626 69.929-70.327 0-38.841-31.487-70.328-70.328-70.328s-70.328 31.486-70.328 70.327v0c0.017 38.845 31.511 70.329 70.359 70.329 0.13 0 0.259 0 0.389-0.001h-0.020z" />
<glyph unicode="&#xe909;" glyph-name="m-info" d="M505.289 954.887c-277.069-3.785-500.22-229.276-500.22-506.887 0-279.97 226.961-506.931 506.931-506.931s506.931 226.961 506.931 506.931c0 2.386-0.016 4.768-0.049 7.146l0.004-0.361c-3.798 277.031-229.261 500.146-506.835 500.146-2.378 0-4.751-0.016-7.121-0.049l0.359 0.004zM555.578 783.879c53.391 0 69.1-30.3 69.1-64.891 0-43.264-35.42-83.251-95.734-83.251-50.463 0-74.557 24.893-73.155 65.956 0.051 34.621 29.655 82.186 99.789 82.186v0zM438.944 110.005c-34.816 0-60.416 22.641-35.983 122.286l40.1 176.64c6.922 28.334 8.11 39.649 0 39.649-10.476 0-55.808-19.599-82.555-38.81l-17.398 30.546c84.91 75.868 182.456 120.33 224.256 120.33 34.918 0 40.714-44.165 23.255-112.087l-45.783-185.733c-8.11-32.768-4.618-44.104 3.43-44.104 10.476 0 44.769 13.629 78.51 41.984l19.763-28.334c-82.575-88.34-172.677-122.368-207.596-122.368z" />
<glyph unicode="&#xe90a;" glyph-name="m-menu" d="M33.095 785.925c-9.823 0-17.787-7.963-17.787-17.787s7.963-17.787 17.787-17.787v0h957.809c9.823 0 17.787 7.963 17.787 17.787s-7.963 17.787-17.787 17.787v0h-957.809zM33.095 465.782c-9.638-0.239-17.36-8.108-17.36-17.782s7.722-17.543 17.338-17.781h957.831c9.638 0.239 17.36 8.108 17.36 17.782s-7.722 17.543-17.338 17.781h-957.831zM33.095 145.649c-9.823 0-17.787-7.963-17.787-17.787s7.963-17.787 17.787-17.787h957.809c9.823 0 17.787 7.963 17.787 17.787s-7.963 17.787-17.787 17.787h-957.809z" />
<glyph unicode="&#xe90b;" glyph-name="m-phone" d="M948.58 108.747c-0.398 0.879-0.86 1.636-1.401 2.329l0.019-0.025-152.914 192.819c-8.493 10.723-21.512 17.541-36.124 17.541-0.015 0-0.031 0-0.046 0h0.002c-11.052-0.042-21.196-3.894-29.194-10.311l0.092 0.071-69.499-55.439-39.598-28.672c-4.905-4.322-11.34-7.012-18.4-7.167l-0.032-0.001c-24.699 0-61.317 35.727-106.598 82.412-50.745 52.416-96.665 110.119-136.666 172.006l-2.669 4.409c-33.372 53.402-48.824 90.665-22.159 111.903l35.246 32.082 69.632 55.767c0.689 0.559 1.292 1.181 1.814 1.868l0.019 0.027c9.63 8.506 15.678 20.876 15.698 34.659v0.004c-0.032 10.293-3.311 19.814-8.864 27.599l0.099-0.146c-0.464 0.944-0.996 1.758-1.613 2.498l0.016-0.020c-155.75 194.222-158.525 197.632-158.525 197.632-8.48 10.645-21.443 17.408-35.984 17.408-0.018 0-0.035 0-0.053 0h0.003c-11.149-0.028-21.375-3.956-29.392-10.491l0.085 0.067-69.468-56.136c-0.047-0.016-0.088-0.037-0.124-0.062l0.002 0.001-0.082-0.113-0.451-0.369-34.714-31.693c-1.823-1.802-178.442-184.986 142.049-601.354 216.945-281.784 391.506-323.85 476.242-323.85 47.677 0 80.415 13.046 94.403 24.709l40.417 28.293c44.657 35.4 62.403 49.459 69.458 56.32l0.492-0.584c10.787 8.557 17.644 21.665 17.644 36.374 0 0.010 0 0.021 0 0.031v-0.002c-0.034 10.356-3.348 19.932-8.956 27.751l0.098-0.144zM236.143 931.449c3.979 3.278 9.123 5.27 14.732 5.284h0.003c7.258-0.011 13.723-3.395 17.915-8.667l0.036-0.047 156.969-195.666c0.394-0.812 0.844-1.511 1.367-2.149l-0.015 0.019c3.336-4.117 5.366-9.412 5.396-15.179v-0.007c0-0.003 0-0.007 0-0.010 0-7.291-3.417-13.784-8.737-17.965l-0.049-0.037c-0.613-0.503-1.154-1.054-1.632-1.657l-0.017-0.022-58.911-47.227-187.658 234.465zM815.43-20.769c-8.95-7.393-35.942-19.958-80.404-19.958-80.486 0-246.999 40.899-457.902 314.829-255.621 332.124-190.71 524.462-144.456 570.184l25.252 23.112 187.597-234.394-27.116-24.709c-47.575-37.888-6.83-103.055 17.531-142.049 43.592-67.725 90.501-126.675 142.635-180.534l-0.299 0.31c52.419-54.026 89.324-89.457 123.238-89.467 12.364 0.168 23.645 4.667 32.427 12.045l-0.079-0.065 30.198 21.852 181.873-229.806zM925.254 62.902c-0.276-0.236-0.563-0.451-0.819-0.707-3.512-2.949-35.144-28.109-59.873-47.739l-181.985 229.98 60.846 48.527c3.969 3.067 9.015 4.916 14.492 4.916 7.257 0 13.757-3.246 18.125-8.365l0.028-0.033 151.675-191.263c0.38-0.761 0.802-1.415 1.286-2.018l-0.017 0.022c3.271-4.109 5.259-9.366 5.294-15.086v-0.008c-0.012-7.413-3.536-14-8.997-18.187l-0.055-0.040z" />
<glyph unicode="&#xe90c;" glyph-name="m-search" d="M425.932 949.87c-0.090 0-0.196 0-0.303 0-229.558 0-415.652-186.094-415.652-415.652s186.094-415.652 415.652-415.652c109.843 0 209.735 42.608 284.049 112.199l-0.231-0.214 279.491-279.941c2.656-2.765 6.384-4.482 10.513-4.482 8.048 0 14.572 6.524 14.572 14.572 0 4.129-1.718 7.857-4.477 10.509l-0.005 0.005-279.941 279.491c69.366 74.052 111.968 173.911 111.968 283.72 0 229.445-186.002 415.447-415.447 415.447-0.066 0-0.133 0-0.199 0h0.010zM425.932 921.198c213.723 0 386.98-173.257 386.98-386.98s-173.257-386.98-386.98-386.98c-213.723 0-386.98 173.257-386.98 386.98v0c0 0.064 0 0.139 0 0.215 0 213.604 173.16 386.765 386.765 386.765 0.075 0 0.151 0 0.226 0h-0.011z" />
<glyph unicode="&#xe90d;" glyph-name="accept" d="M999.465 740.809l-73.643 73.662-536.542-536.561-291.104 291.078-98.176-98.205 389.28-389.254 634.72 634.737z" />
<glyph unicode="&#xe90e;" glyph-name="arrow-down" d="M76.8 658.289l32.768 30.351 402.432-418.406 402.432 418.406 32.768-30.351-435.2-450.929z" />
<glyph unicode="&#xe90f;" glyph-name="arrow-left" d="M722.289 883.2l30.351-32.768-418.396-402.432 418.396-402.422-30.351-32.778-450.929 435.2 450.929 435.2z" />
<glyph unicode="&#xe910;" glyph-name="arrow-right" d="M301.706 12.8l-30.351 32.758 418.386 402.452-418.376 402.412 30.351 32.778 450.929-435.2-450.939-435.2z" />
<glyph unicode="&#xe911;" glyph-name="arrow-up" d="M947.2 237.711l-32.768-30.351-402.432 418.396-402.432-418.396-32.768 30.351 435.2 450.929 435.2-450.929z" />
<glyph unicode="&#xe912;" glyph-name="close" d="M530.628 447.988l346.583 346.583c5.161 5.151 5.161 13.476 0 18.637-5.161 5.151-13.476 5.151-18.637 0l-346.573-346.573-346.583 346.573c-5.151 5.151-13.486 5.151-18.637 0-5.151-5.161-5.151-13.486 0-18.637l346.573-346.583-346.563-346.563c-5.151-5.161-5.151-13.476 0-18.637 2.58-2.58 5.96-3.86 9.318-3.86 3.369 0 6.748 1.28 9.318 3.86l346.583 346.563 346.552-346.563c2.58-2.58 5.96-3.86 9.318-3.86s6.758 1.28 9.318 3.86c5.161 5.161 5.161 13.476 0 18.637l-346.573 346.563z" />
<glyph unicode="&#xe913;" glyph-name="facebook" d="M512 892.763c-245.646 0-444.782-199.172-444.782-444.782 0-245.646 199.136-444.745 444.782-444.745s444.782 199.1 444.782 444.745c0 245.61-199.154 444.782-444.782 444.782zM629.711 449.842h-77.017c0-123.076 0-274.672 0-274.672h-114.153c0 0 0 150.043 0 274.672h-54.295v96.976h54.295v62.838c0 44.975 21.35 115.183 115.219 115.183l84.531-0.325v-94.194c0 0-51.405 0-61.375 0-10.025 0-24.203-5.003-24.203-26.389v-57.131h87.024l-10.025-96.958z" />
<glyph unicode="&#xe914;" glyph-name="google" d="M429.186 480.891c11.361 0 20.952 4.479 28.358 12.951 11.65 13.222 16.762 34.968 13.727 58.070-5.437 41.308-34.896 75.608-65.692 76.511h-1.228c-10.91 0-20.609-4.443-28.014-12.914-11.506-13.095-16.31-33.794-13.294-56.824 5.401-41.236 35.492-76.873 65.656-77.794h0.488zM462.8 356.497c-3.034 2.041-6.177 4.19-9.41 6.412-9.483 2.926-19.579 4.443-29.875 4.588h-1.3c-47.413 0-89.029-28.755-89.029-61.52 0-35.601 35.619-63.543 81.117-63.543 60.003 0 90.419 20.681 90.419 61.484 0 3.883-0.452 7.875-1.373 11.849-4.064 15.895-18.604 25.775-40.55 40.73zM512.019 892.763c-245.664 0-444.782-199.1-444.782-444.745s199.136-444.782 444.782-444.782c245.61 0 444.745 199.136 444.745 444.782s-199.154 444.745-444.745 444.745zM471.542 206.002c-17.737-5.112-36.865-7.731-56.968-7.731-22.361 0-43.891 2.583-63.94 7.658-38.834 9.772-67.553 28.358-80.919 52.29-5.78 10.368-8.706 21.386-8.706 32.801 0 11.777 2.818 23.698 8.363 35.528 21.313 45.336 77.36 75.807 139.476 75.807 0.632 0 1.228 0 1.806 0-5.039 8.887-7.514 18.098-7.514 27.762 0 4.841 0.632 9.736 1.897 14.703-65.132 1.517-113.9 49.219-113.9 112.112 0 44.451 35.492 87.692 86.265 105.194 15.208 5.256 30.688 7.929 45.932 7.929h139.314c4.768 0 8.923-3.071 10.404-7.586 1.517-4.552-0.144-9.483-3.992-12.282l-31.157-22.542c-1.878-1.337-4.136-2.077-6.448-2.077h-11.144c14.432-17.249 22.867-41.832 22.867-69.503 0-30.543-15.443-59.407-43.53-81.388-21.693-16.906-22.578-21.512-22.578-31.23 0.289-5.328 15.425-22.614 32.060-34.39 38.87-27.509 53.338-54.439 53.338-99.487 0-46.871-35.709-87.547-90.925-103.569zM786.221 444.983c0-6.033-4.931-10.928-10.964-10.928h-79.167v-79.203c0-6.069-4.895-10.964-10.964-10.964h-22.542c-6.069 0-10.964 4.895-10.964 10.964v79.203h-79.221c-5.997 0-10.928 4.895-10.928 10.928v22.578c0 6.033 4.931 10.964 10.928 10.964h79.203v79.167c0 6.069 4.895 10.964 10.964 10.964h22.542c6.069 0 10.964-4.895 10.964-10.964v-79.167h79.167c6.033 0 10.964-4.931 10.964-10.964v-22.578z" />
<glyph unicode="&#xe915;" glyph-name="instagram" d="M587.846 444.388c0-43.887-35.577-79.464-79.464-79.464s-79.464 35.577-79.464 79.464c0 43.887 35.577 79.464 79.464 79.464s79.464-35.577 79.464-79.464zM607.712 639.436h-198.66c-28.896 0-54.18-9.030-70.434-25.284s-25.284-41.538-25.284-70.434v-198.66c0-28.896 9.030-54.18 27.090-72.24 18.060-16.254 41.538-25.284 70.434-25.284h196.854c28.896 0 54.18 9.030 70.434 25.284 18.060 16.254 27.090 41.538 27.090 70.434v198.66c0 28.896-9.030 52.374-25.284 70.434-18.060 18.060-41.538 27.090-72.24 27.090zM508.382 321.58c-68.628 0-122.808 55.986-122.808 122.808 0 68.628 55.986 122.808 122.808 122.808s124.614-54.18 124.614-122.808c0-68.628-55.986-122.808-124.614-122.808zM636.608 543.718c-16.254 0-28.896 12.642-28.896 28.896s12.642 28.896 28.896 28.896 28.896-12.642 28.896-28.896-12.642-28.896-28.896-28.896zM511.994 892.275c-245.616 0-444.275-198.66-444.275-444.275s198.66-444.275 444.275-444.275c245.616 0 444.275 198.66 444.275 444.275 1.806 245.616-198.66 444.275-444.275 444.275zM748.58 343.252c0-41.538-14.448-77.658-39.732-102.942s-61.404-37.926-101.136-37.926h-196.854c-39.732 0-75.852 12.642-101.136 37.926-27.090 25.284-39.732 61.404-39.732 102.942v198.66c0 83.076 55.986 140.868 140.868 140.868h198.66c41.538 0 75.852-14.448 101.136-39.732s37.926-59.598 37.926-101.136v-198.66z" />
<glyph unicode="&#xe916;" glyph-name="pinterest" d="M512.009 892.771c-245.628 0-444.782-199.1-444.782-444.782 0-182.103 109.511-338.558 266.219-407.357-1.246 31.085-0.217 68.329 7.749 102.124 8.543 36.124 57.221 242.359 57.221 242.359s-14.215 28.394-14.215 70.37c0 65.891 38.202 115.11 85.777 115.11 40.459 0 60.003-30.381 60.003-66.74 0-40.676-25.955-101.491-39.285-157.827-11.126-47.197 23.661-85.687 70.208-85.687 84.26 0 141.030 108.229 141.030 236.47 0 97.482-65.656 170.453-185.065 170.453-134.925 0-218.968-100.606-218.968-212.989 0-38.761 11.433-66.072 29.333-87.24 8.218-9.699 9.374-13.619 6.394-24.763-2.131-8.182-7.026-27.906-9.049-35.709-2.962-11.289-12.084-15.317-22.271-11.144-62.134 25.359-91.088 93.418-91.088 169.929 0 126.327 106.549 277.833 317.877 277.833 169.785 0 281.553-122.895 281.553-254.803 0-174.445-96.976-304.8-239.956-304.8-48.027 0-93.201 25.973-108.662 55.415 0 0-25.829-102.485-31.284-122.245-9.428-34.318-27.906-68.582-44.776-95.278 40.008-11.813 82.255-18.243 126.056-18.243 245.61 0 444.745 199.1 444.745 444.745-0.018 245.7-199.172 444.8-444.763 444.8z" />
<glyph unicode="&#xe917;" glyph-name="twitter" d="M512.019 892.763c-245.646 0-444.782-199.172-444.782-444.782 0-245.646 199.136-444.745 444.782-444.745s444.745 199.1 444.745 444.745c0 245.61-199.118 444.782-444.745 444.782zM736.063 537.661c0.235-4.805 0.325-9.627 0.325-14.504 0-148.128-112.744-318.906-318.906-318.906-63.29 0-122.227 18.55-171.826 50.339 8.778-1.030 17.683-1.553 26.732-1.553 52.525 0 100.859 17.918 139.205 47.973-49.039 0.921-90.419 33.343-104.688 77.866 6.828-1.337 13.854-2.005 21.079-2.005 10.223 0 20.121 1.337 29.532 3.919-51.297 10.295-89.932 55.632-89.932 109.89 0 0.488 0 0.957 0.018 1.445 15.1-8.399 32.386-13.438 50.773-14.034-30.092 20.139-49.87 54.403-49.87 93.309 0 20.537 5.527 39.809 15.172 56.354 55.288-67.805 137.887-112.437 231.052-117.097-1.915 8.182-2.908 16.762-2.908 25.54 0 61.881 50.177 112.076 112.094 112.076 32.241 0 61.357-13.619 81.804-35.384 25.54 5.003 49.527 14.359 71.183 27.202-8.399-26.19-26.154-48.154-49.31-62.008 22.704 2.709 44.307 8.742 64.392 17.647-14.992-22.524-34.011-42.266-55.921-58.070z" />
<glyph unicode="&#xe918;" glyph-name="p-certificate" d="M969.727 816.64h-917.012c-29.1-0.38-52.562-23.982-52.715-53.1v-631.065c0.153-29.133 23.615-52.735 52.68-53.115h918.564c29.118 0.357 52.603 23.968 52.756 53.1v631.065c-1.491 29.117-25.045 52.268-54.192 53.113l-0.080 0.002zM990.494 132.465c-0.174-11.428-9.351-20.656-20.743-20.91h-917.036c-11.419 0.255-20.599 9.488-20.767 20.904v631.066c0.162 11.437 9.344 20.676 20.743 20.93h918.552c11.422-0.255 20.604-9.494 20.767-20.915v-631.066h-1.556zM856.268 443.167c22.736 28.462 36.55 64.921 36.741 104.599v0.043c0.003 0.384 0.005 0.838 0.005 1.292 0 89.994-72.955 162.949-162.949 162.949s-162.949-72.955-162.949-162.949c0-0.454 0.002-0.908 0.006-1.361v0.069c0.192-39.722 14.006-76.18 37.004-104.983l-0.263 0.341-73.492-133.612c-1.402-2.213-2.234-4.908-2.234-7.798 0-3.821 1.455-7.302 3.842-9.919l-0.010 0.012c2.991-4.074 7.763-6.689 13.145-6.689 1 0 1.979 0.090 2.928 0.263l-0.099-0.015 60.713 12.882 20.767-59.566c2.348-6.038 7.744-10.409 14.247-11.255l0.089-0.009h1.597c0.007 0 0.014 0 0.022 0 6.034 0 11.323 3.19 14.273 7.976l0.042 0.072 70.42 128.778 70.246-128.788c2.988-4.858 8.276-8.049 14.308-8.049 0.010 0 0.019 0 0.029 0h1.637c6.651 0.707 12.111 5.14 14.298 11.145l0.038 0.119 20.767 59.566 60.703-12.882c1.002-0.236 2.152-0.372 3.333-0.372 5.261 0 9.894 2.684 12.607 6.757l0.035 0.055c2.094 2.839 3.352 6.408 3.352 10.27 0 2.705-0.617 5.266-1.718 7.55l0.045-0.104zM648.59 283.802l-14.336 38.636c-1.809 6.4-7.502 11.048-14.312 11.263l-0.024 0.001h-3.277l-39.936-8.049 52.716 94.976c21.262-16.989 47.264-28.948 75.713-33.66l0.964-0.132zM731.657 414.208c-0.298-0.002-0.651-0.004-1.004-0.004-72.904 0-132.004 59.1-132.004 132.004s59.1 132.004 132.004 132.004c72.904 0 132.004-59.1 132.004-132.004 0-0.002 0-0.005 0-0.007v0c-0.055-72.527-58.553-131.373-130.941-131.993h-0.059zM845.086 332.104c-1.009 0.241-2.168 0.379-3.358 0.379-6.52 0-12.074-4.137-14.18-9.93l-0.033-0.105-14.336-38.636-55.91 101.376c29.413 4.844 55.415 16.803 77.009 34.048l-0.332-0.256 52.716-94.976zM402.574 665.324c0.020-0.289 0.031-0.626 0.031-0.966 0-8.37-6.785-15.155-15.155-15.155-0.299 0-0.596 0.009-0.891 0.026l0.041-0.002h-254.003c-8.89 0-16.097 7.207-16.097 16.097s7.207 16.097 16.097 16.097h254.003c8.834-0.052 15.974-7.225 15.974-16.066 0-0.011 0-0.022 0-0.033v0.002zM402.574 512.389c0.020-0.289 0.031-0.626 0.031-0.966 0-8.37-6.785-15.155-15.155-15.155-0.299 0-0.596 0.009-0.891 0.026l0.041-0.002h-254.003c-8.89 0-16.097 7.207-16.097 16.097s7.207 16.097 16.097 16.097h254.003c8.834-0.052 15.974-7.225 15.974-16.066 0-0.011 0-0.022 0-0.033v0.002zM402.574 359.455c0.020-0.289 0.031-0.626 0.031-0.966 0-8.37-6.785-15.155-15.155-15.155-0.299 0-0.596 0.009-0.891 0.026l0.041-0.002h-254.003c-8.89 0-16.097 7.207-16.097 16.097s7.207 16.097 16.097 16.097h254.003c8.834-0.052 15.974-7.225 15.974-16.066 0-0.011 0-0.022 0-0.033v0.002z" />
<glyph unicode="&#xe919;" glyph-name="p-gift" d="M974.216 774.432h-248.095c27.809 18.245 45.919 49.278 45.919 84.541 0 55.66-45.122 100.782-100.782 100.782-19.807 0-38.279-5.714-53.858-15.583l0.413 0.244c-43.387-27.003-80.65-84.767-105.728-131.994-25.252 47.288-62.7 105.052-105.728 131.932-15.338 9.921-34.083 15.819-54.205 15.819-55.659 0-100.78-45.121-100.78-100.78 0-35.537 18.393-66.777 46.179-84.722l0.396-0.24h-247.931c-0.030 0-0.067 0-0.103 0-10.589 0-19.178-8.558-19.23-19.134v-117.007c0.058-10.554 8.627-19.088 19.189-19.088 0.047 0 0.094 0 0.141 0.001h49.862v-664.115c0 0 0 0 0 0 0-10.638 8.624-19.261 19.261-19.261 0.029 0 0.058 0 0.086 0h785.855c10.552 0.023 19.098 8.583 19.098 19.139 0 0.043 0 0.086 0 0.13v-0.007 664.207h49.992c0.012 0 0.027 0 0.041 0 10.546 0 19.096 8.543 19.108 19.086v116.911c0 0.009 0 0.020 0 0.031 0 10.549-8.549 19.102-19.097 19.108h-0.001zM885.804 277.505v-303.34h-353.526v303.34h353.526zM885.804 619.296v-303.514h-353.526v303.514h353.526zM535.954 774.432c18.524 37.315 58.788 110.326 102.042 137.431 9.51 5.94 21.043 9.493 33.401 9.574h0.022c0.093 0.001 0.204 0.001 0.315 0.001 34.402 0 62.29-27.888 62.29-62.29 0-22.18-11.592-41.652-29.048-52.688l-0.256-0.151c-43.366-27.064-122.972-31.652-168.765-31.877zM955.057 736.155v-78.51h-422.84v78.5h422.84zM493.796 277.505v-303.34h-355.482v303.34h355.482zM493.796 619.296v-303.514h-355.482v303.514h355.482zM352.75 921.427c12.305-0.016 23.774-3.581 33.442-9.725l-0.254 0.151c43.95-27.341 83.968-100.178 102.277-137.37-45.906 0.225-125.512 4.813-168.704 31.744-17.72 11.196-29.316 30.678-29.316 52.87 0 34.424 27.906 62.331 62.331 62.331 0.079 0 0.158 0 0.237 0h-0.012zM493.796 736.144v-78.51h-424.684v78.51h424.684z" />
<glyph unicode="&#xe91a;" glyph-name="p-returns" d="M541.264 521.074v40.131h-46.162v-40.315l-6.144-0.737c-24.279-2.929-103.526-18.094-103.526-89.958 0-70.881 57.774-83.128 127.57-90.931 38.38-4.536 89.334-15.124 89.334-54.61 0-36.045-33.976-58.429-88.678-58.429-36.291 0-79.872 16.333-97.362 47.606l-43.131-18.278c26.9-54.405 83.497-67.42 115.61-70.287l6.349-0.604v-44.288h46.152v46.797l6.42 0.471c52.531 3.809 105.554 35.277 105.554 97.014 0 74.199-61.88 87.869-136.622 97.075-37.007 4.413-83.108 9.902-83.108 48.466 0 32.625 29.911 51.333 82.043 51.333 32.635 0 66.56-14.336 82.217-34.109l39.178 18.125c-17.408 30.904-45.435 47.872-89.825 54.651zM785.283 733.134c-3.608 3.095-8.333 4.979-13.499 4.979-11.48 0-20.787-9.307-20.787-20.787 0-6.974 3.435-13.147 8.705-16.917l0.063-0.043c95.558-74.613 156.419-189.826 156.419-319.253 0-223.128-180.881-404.009-404.009-404.009s-404.009 180.881-404.009 404.009c0 223.128 180.881 404.009 404.009 404.009 7.765 0 15.479-0.219 23.136-0.651l-1.062 0.048-105.615-105.646c-3.762-3.764-6.089-8.962-6.089-14.705 0-11.487 9.312-20.799 20.799-20.799 5.745 0 10.946 2.329 14.71 6.094l152.156 152.156-152.177 152.115c-3.794 3.97-9.131 6.438-15.045 6.438-11.486 0-20.797-9.311-20.797-20.797 0-5.911 2.466-11.246 6.425-15.032l0.008-0.007 98.007-98.017c-4.39 0.155-9.549 0.244-14.729 0.244-245.942 0-445.317-199.375-445.317-445.317 0-221.56 161.804-405.329 373.694-439.588l2.558-0.341c21.083-3.493 45.377-5.489 70.138-5.489 0.013 0 0.025 0 0.038 0h-0.002c245.574 0.636 444.404 199.859 444.404 445.521 0 142.571-66.969 269.501-171.165 351.050l-0.977 0.737z" />
<glyph unicode="&#xe91b;" glyph-name="p-shipping" d="M1024 449.441l-129.129 141.867h-153.725v92.419h-493.529v-78.431h-147.381c-6.959-0.488-12.418-6.252-12.418-13.292s5.459-12.804 12.376-13.29l0.042-0.002h147.371v-162.815h-42.93c-6.959-0.488-12.418-6.252-12.418-13.292s5.459-12.804 12.376-13.29l0.042-0.002h42.93v-120.735h61.982c4.474-31.967 31.637-56.302 64.482-56.302s60.009 24.334 64.443 55.957l0.039 0.343h370.569c4.474-31.967 31.637-56.302 64.482-56.302s60.009 24.334 64.443 55.957l0.039 0.343h85.912v180.863zM374.072 238.89c-0.018 0-0.040 0-0.061 0-21.542 0-39.005 17.463-39.005 39.005s17.463 39.005 39.005 39.005c21.542 0 39.005-17.463 39.005-39.005 0-0.004 0-0.007 0-0.011v0.001c0-21.518-17.429-38.966-38.941-38.995h-0.003zM714.705 295.163h-277.812c-7.618 28.040-32.847 48.321-62.812 48.321s-55.194-20.281-62.706-47.866l-0.106-0.455h-37.14v361.981h440.586v-361.981zM873.615 238.89c-0.018 0-0.040 0-0.061 0-21.542 0-39.005 17.463-39.005 39.005s17.463 39.005 39.005 39.005c21.542 0 39.005-17.463 39.005-39.005 0-0.004 0-0.007 0-0.011v0.001c0-21.518-17.429-38.966-38.941-38.995h-0.003zM997.487 295.163h-61.060c-7.618 28.040-32.847 48.321-62.812 48.321s-55.194-20.281-62.706-47.866l-0.106-0.455h-69.566v269.531h141.99l114.279-125.552v-143.979zM174.803 497.291c0 0.018 0 0.040 0 0.061 0 7.321-5.932 13.256-13.251 13.262h-149.134c-6.959-0.488-12.418-6.252-12.418-13.292s5.459-12.804 12.376-13.29l0.042-0.002h149.133c7.306 0.040 13.217 5.955 13.251 13.258v0.003zM162.352 415.899h-15.372c-6.959-0.488-12.418-6.252-12.418-13.292s5.459-12.804 12.376-13.29l0.042-0.002h15.372c6.959 0.488 12.418 6.252 12.418 13.292s-5.459 12.804-12.376 13.29l-0.042 0.002z" />
<glyph unicode="&#xe91c;" glyph-name="filters" d="M132.869 672.409c0 12.298 8.202 20.49 20.49 20.49h502.088v47.135c0 12.298 8.202 20.49 20.5 20.49 12.288 0 20.49-8.192 20.49-20.49v-47.135h174.203c12.288 0 20.49-8.192 20.49-20.49s-8.202-20.49-20.49-20.49h-174.203v-45.087c0-12.298-8.202-20.49-20.49-20.49-12.298 0-20.5 8.202-20.5 20.49v45.087h-502.088c-12.288 0-20.49 10.25-20.49 20.49zM870.641 469.524h-522.588v45.076c0 12.298-8.192 20.5-20.49 20.5s-20.49-8.202-20.49-20.5v-45.076h-153.702c-12.298 0-20.49-8.202-20.49-20.49 0-12.298 8.202-20.49 20.49-20.49h153.702v-47.145c0-12.298 8.192-20.5 20.49-20.5s20.49 8.202 20.49 20.5v47.145h522.588c12.288 0 20.49 8.202 20.49 20.49s-8.202 20.49-20.49 20.49zM870.641 244.1h-297.165v45.076c0 12.298-8.202 20.5-20.49 20.5-12.298 0-20.5-8.202-20.5-20.5v-45.076h-379.126c-12.298 0-20.49-8.202-20.49-20.5s8.202-20.5 20.49-20.5h379.126v-47.124c0-12.298 8.202-20.5 20.5-20.5 12.288 0 20.49 8.202 20.49 20.5v47.124h297.165c12.288 0 20.49 8.202 20.49 20.5s-8.202 20.5-20.49 20.5z" />
<glyph unicode="&#xe91d;" glyph-name="lock" d="M512.011 843.571c-120.187 0-217.569-97.372-217.569-217.559v-138.455h-19.784c-21.914 0-39.557-17.644-39.557-39.557v-356.014c0-21.924 17.644-39.557 39.557-39.557h474.685c21.924 0 39.557 17.644 39.557 39.557v356.014c0 21.914-17.644 39.557-39.557 39.557h-19.773v138.455c0.010 120.187-97.362 217.559-217.559 217.559zM512.011 804.014c98.959 0 178.012-79.053 178.012-178.002v-138.455h-356.014v138.455c0 98.959 79.043 178.002 178.002 178.002zM512.011 368.885c32.768 0 59.341-26.563 59.341-59.341 0-17.562-7.649-33.321-19.784-44.186v-54.702c0-21.914-17.654-39.547-39.557-39.547s-39.557 17.644-39.557 39.547v54.702c-12.134 10.875-19.784 26.634-19.784 44.186 0 32.778 26.573 59.341 59.341 59.341z" />
<glyph unicode="&#xe91e;" glyph-name="trash" d="M835.17 657.111c8.581 0 15.544 6.963 15.544 15.544s-6.963 15.534-15.544 15.534h-199.598v20.838c0 42.834-34.847 77.681-77.691 77.681h-91.761c-42.844 0-77.691-34.847-77.691-77.681v-20.838h-199.608c-8.581 0-15.534-6.953-15.534-15.534s6.953-15.544 15.534-15.544h56.771l68.823-481.126c5.437-38.021 38.502-66.693 76.902-66.693h241.357c38.41 0 71.465 28.672 76.913 66.693l68.823 481.126h56.76zM419.508 709.028c0 25.702 20.91 46.612 46.612 46.612h91.761c25.702 0 46.612-20.91 46.612-46.612v-20.838h-184.986v20.838zM678.805 180.378c-3.256-22.825-23.101-40.018-46.141-40.018h-241.336c-23.040 0-42.885 17.203-46.141 40.018l-68.198 476.733h470.016l-68.198-476.733z" />
<glyph unicode="&#xe9d7;" glyph-name="star-empty" d="M1024 562.95l-353.78 51.408-158.22 320.582-158.216-320.582-353.784-51.408 256-249.538-60.432-352.352 316.432 166.358 316.432-166.358-60.434 352.352 256.002 249.538zM512 206.502l-223.462-117.48 42.676 248.83-180.786 176.222 249.84 36.304 111.732 226.396 111.736-226.396 249.836-36.304-180.788-176.222 42.678-248.83-223.462 117.48z" />
<glyph unicode="&#xe9d9;" glyph-name="star-full" d="M1024 562.95l-353.78 51.408-158.22 320.582-158.216-320.582-353.784-51.408 256-249.538-60.432-352.352 316.432 166.358 316.432-166.358-60.434 352.352 256.002 249.538z" />
</font>
</defs>
</svg>
