<svg
 xmlns="http://www.w3.org/2000/svg"
 xmlns:xlink="http://www.w3.org/1999/xlink"
>
<defs>
<filter id="Filter_0">
    <feFlood flood-color="rgb(147, 147, 147)" flood-opacity="1" result="floodOut" />
    <feComposite operator="atop" in="floodOut" in2="SourceGraphic" result="compOut" />
    <feBlend mode="normal" in="compOut" in2="SourceGraphic" />
</filter>

</defs>
<g filter="url(#Filter_0)">
<path fill-rule="evenodd"  fill="rgb(0, 0, 0)"
 d="M39.071,21.211 C39.071,18.566 36.985,16.414 34.422,16.414 C34.082,16.414 33.808,16.698 33.808,17.048 C33.808,17.398 34.082,17.681 34.422,17.681 C36.309,17.681 37.844,19.265 37.844,21.211 C37.844,23.157 36.309,24.741 34.422,24.741 C32.536,24.741 31.001,23.157 31.001,21.211 L31.001,13.636 L41.383,13.636 C41.722,13.636 41.997,13.352 41.997,13.002 C41.997,12.652 41.722,12.369 41.383,12.369 L31.001,12.369 L31.001,4.793 C31.001,2.847 32.536,1.263 34.422,1.263 C36.309,1.263 37.844,2.847 37.844,4.793 C37.844,6.740 36.309,8.323 34.422,8.323 C34.082,8.323 33.808,8.607 33.808,8.957 C33.808,9.306 34.082,9.590 34.422,9.590 C36.985,9.590 39.071,7.439 39.071,4.793 C39.071,2.149 36.985,-0.003 34.422,-0.003 C31.859,-0.003 29.773,2.149 29.773,4.793 L29.773,12.369 L18.181,12.369 C17.862,7.483 13.919,3.605 9.104,3.605 C4.082,3.605 -0.004,7.820 -0.004,13.002 C-0.004,18.184 4.082,22.399 9.104,22.399 C13.919,22.399 17.862,18.521 18.181,13.636 L29.773,13.636 L29.773,21.211 C29.773,23.856 31.859,26.007 34.422,26.007 C36.985,26.007 39.071,23.856 39.071,21.211 ZM9.104,21.133 C4.759,21.133 1.223,17.485 1.223,13.002 C1.223,8.519 4.759,4.871 9.104,4.871 C13.449,4.871 16.984,8.519 16.984,13.002 C16.984,17.485 13.449,21.133 9.104,21.133 Z"/>
</g>
</svg>