<svg
 xmlns="http://www.w3.org/2000/svg"
 xmlns:xlink="http://www.w3.org/1999/xlink"
>
<defs>
<filter id="Filter_0">
    <feFlood flood-color="rgb(147, 147, 147)" flood-opacity="1" result="floodOut" />
    <feComposite operator="atop" in="floodOut" in2="SourceGraphic" result="compOut" />
    <feBlend mode="normal" in="compOut" in2="SourceGraphic" />
</filter>

</defs>
<g filter="url(#Filter_0)">
<path fill-rule="evenodd"  fill="rgb(0, 0, 0)"
 d="M48.320,7.250 C47.414,7.250 46.584,7.574 45.942,8.108 C45.735,6.844 44.704,6.235 44.126,6.087 L39.896,6.069 C39.087,4.907 37.039,4.968 36.003,5.085 C35.648,3.966 34.570,1.523 31.700,0.381 C28.529,-0.882 25.803,1.303 24.911,2.145 C22.282,0.632 19.730,0.062 17.727,0.154 L17.637,0.165 C17.506,0.190 14.416,0.804 13.375,3.363 C13.141,3.936 13.063,4.547 13.132,5.187 C10.870,5.345 7.631,6.245 6.670,8.762 C6.000,7.848 4.911,7.250 3.680,7.250 C1.647,7.250 -0.007,8.874 -0.007,10.871 C-0.007,12.868 1.647,14.492 3.680,14.492 C4.936,14.492 6.046,13.871 6.712,12.925 C7.533,15.796 9.800,16.708 12.262,17.159 C12.476,18.500 13.113,20.045 14.247,21.216 C15.381,22.387 16.820,22.994 18.445,22.994 C18.698,22.994 18.956,22.979 19.218,22.949 C22.997,22.521 24.471,21.174 25.014,20.413 C26.228,21.724 28.011,22.901 30.130,22.901 C30.960,22.901 31.780,22.715 32.568,22.347 C34.021,21.670 34.956,20.628 35.348,19.253 C35.445,18.913 35.504,18.555 35.532,18.180 C35.844,18.157 36.373,18.131 37.206,18.131 C38.328,18.131 39.099,17.502 39.561,16.948 L42.763,16.948 C45.022,16.948 45.855,15.436 45.979,14.637 L45.980,13.667 C46.617,14.183 47.432,14.492 48.320,14.492 C50.352,14.492 52.006,12.868 52.006,10.871 C52.006,8.874 50.352,7.250 48.320,7.250 ZM3.680,13.254 C2.342,13.254 1.253,12.185 1.253,10.871 C1.253,9.557 2.342,8.488 3.680,8.488 C5.018,8.488 6.106,9.557 6.106,10.871 C6.106,12.185 5.018,13.254 3.680,13.254 ZM31.227,1.528 C33.646,2.491 34.535,4.588 34.811,5.479 C34.271,5.831 33.373,6.555 32.753,7.774 L32.087,9.082 C32.086,9.079 32.084,9.077 32.083,9.075 C30.207,6.270 28.105,4.247 26.012,2.834 C26.907,2.063 28.979,0.632 31.227,1.528 ZM7.644,10.325 C7.644,7.059 12.025,6.506 13.436,6.413 C13.901,7.658 14.862,8.982 16.296,10.336 C15.137,11.279 12.554,13.569 12.227,15.500 C12.206,15.619 12.201,15.755 12.192,15.886 C9.302,15.301 7.644,14.099 7.644,10.325 ZM24.108,19.493 C24.102,19.509 23.376,21.232 19.074,21.720 C17.518,21.896 16.202,21.440 15.161,20.363 C13.857,19.016 13.268,16.896 13.470,15.703 C13.714,14.261 16.028,12.149 17.243,11.174 C17.312,11.232 17.376,11.289 17.446,11.347 C20.463,13.816 22.695,16.353 23.570,18.307 C23.742,18.690 23.997,19.122 24.316,19.563 L24.108,19.493 ZM34.135,18.919 C33.841,19.949 33.152,20.705 32.027,21.229 C31.409,21.517 30.771,21.664 30.130,21.664 C27.592,21.664 25.441,19.409 24.724,17.808 C23.422,14.902 20.111,11.916 18.253,10.395 C15.210,7.905 13.858,5.509 14.545,3.822 C15.275,2.028 17.516,1.461 17.838,1.389 C21.372,1.246 26.772,3.389 31.030,9.755 C33.652,13.675 34.726,16.844 34.135,18.919 ZM37.206,16.893 C36.406,16.893 35.861,16.916 35.508,16.940 C35.316,15.081 34.434,12.864 32.871,10.309 L33.880,8.327 C34.503,7.103 35.489,6.507 35.743,6.370 C36.688,6.210 38.654,6.132 38.927,6.892 C39.045,7.221 39.007,7.261 38.639,7.644 C38.112,8.193 37.317,9.023 37.317,11.144 C37.317,13.773 38.229,15.297 38.751,15.953 C38.493,16.330 37.977,16.893 37.206,16.893 ZM42.763,15.710 L40.271,15.710 L39.943,15.414 C39.887,15.364 38.577,14.148 38.577,11.144 C38.577,9.514 39.097,8.972 39.556,8.493 C39.844,8.193 40.174,7.838 40.230,7.305 L43.871,7.305 C44.081,7.379 44.726,7.681 44.726,8.561 L44.726,10.075 C44.667,10.332 44.633,10.597 44.633,10.871 C44.633,11.145 44.667,11.410 44.726,11.667 L44.726,14.487 C44.678,14.698 44.368,15.710 42.763,15.710 ZM48.320,13.254 C47.196,13.254 46.257,12.496 45.983,11.476 L45.984,10.261 C46.260,9.244 47.198,8.488 48.320,8.488 C49.657,8.488 50.746,9.557 50.746,10.871 C50.746,12.185 49.657,13.254 48.320,13.254 Z"/>
</g>
</svg>