<svg
 xmlns="http://www.w3.org/2000/svg"
 xmlns:xlink="http://www.w3.org/1999/xlink"
>
<defs>
<filter id="Filter_0">
    <feFlood flood-color="rgb(147, 147, 147)" flood-opacity="1" result="floodOut" />
    <feComposite operator="atop" in="floodOut" in2="SourceGraphic" result="compOut" />
    <feBlend mode="normal" in="compOut" in2="SourceGraphic" />
</filter>

</defs>
<g filter="url(#Filter_0)">
<path fill-rule="evenodd"  fill="rgb(0, 0, 0)"
 d="M54.963,13.134 C54.870,13.401 54.619,13.567 54.348,13.567 C54.278,13.567 54.208,13.556 54.137,13.533 C46.046,10.793 34.962,10.560 34.850,10.557 C33.145,10.557 29.481,10.810 27.071,11.286 C26.721,11.359 26.379,11.132 26.307,10.782 C26.237,10.434 26.465,10.097 26.818,10.028 C29.309,9.536 33.092,9.274 34.864,9.274 C35.337,9.283 46.276,9.515 54.559,12.320 C54.899,12.434 55.078,12.800 54.963,13.134 ZM20.982,12.373 C18.368,13.435 14.939,14.149 12.447,14.149 C8.490,14.149 6.689,11.789 6.689,9.596 C6.689,7.448 8.490,5.136 12.447,5.136 C13.016,5.136 13.641,5.284 14.360,5.588 C14.686,5.725 15.071,5.576 15.211,5.249 C15.352,4.924 15.198,4.548 14.868,4.408 C13.986,4.036 13.194,3.854 12.447,3.854 C10.293,3.854 8.476,4.463 7.195,5.611 C6.032,6.655 5.390,8.070 5.390,9.595 C5.390,12.494 7.814,15.430 12.447,15.430 C15.092,15.430 18.721,14.677 21.477,13.556 C21.809,13.423 21.966,13.047 21.828,12.720 C21.693,12.392 21.315,12.234 20.982,12.373 ZM43.689,12.502 C41.903,14.457 38.876,15.534 35.164,15.534 C30.014,15.534 25.333,11.878 21.204,8.653 L20.104,7.799 C19.820,7.581 19.412,7.627 19.191,7.908 C18.970,8.187 19.020,8.589 19.302,8.807 L20.397,9.659 C24.694,13.013 29.562,16.815 35.164,16.815 C39.249,16.815 42.618,15.589 44.654,13.361 C44.895,13.098 44.873,12.693 44.607,12.456 C44.339,12.218 43.929,12.241 43.689,12.502 ZM10.026,11.840 C10.156,11.988 10.338,12.066 10.522,12.066 C10.670,12.066 10.820,12.016 10.942,11.915 C16.009,7.678 23.668,1.278 35.239,1.278 C41.604,1.278 44.575,4.474 45.181,7.212 C45.258,7.557 45.602,7.777 45.955,7.702 C46.306,7.625 46.527,7.285 46.450,6.937 C45.740,3.735 42.377,-0.004 35.239,-0.004 C23.191,-0.004 15.314,6.579 10.101,10.936 C9.827,11.164 9.795,11.568 10.026,11.840 ZM5.456,14.671 C3.466,16.090 1.982,16.723 0.644,16.723 C0.285,16.723 -0.006,17.010 -0.006,17.364 C-0.006,17.718 0.285,18.005 0.644,18.005 C2.272,18.005 3.992,17.298 6.217,15.711 C6.508,15.503 6.573,15.102 6.363,14.816 C6.152,14.530 5.747,14.464 5.456,14.671 Z"/>
</g>
</svg>