<svg
 xmlns="http://www.w3.org/2000/svg"
 xmlns:xlink="http://www.w3.org/1999/xlink"
>
<defs>
<filter id="Filter_0">
    <feFlood flood-color="rgb(147, 147, 147)" flood-opacity="1" result="floodOut" />
    <feComposite operator="atop" in="floodOut" in2="SourceGraphic" result="compOut" />
    <feBlend mode="normal" in="compOut" in2="SourceGraphic" />
</filter>

</defs>
<g filter="url(#Filter_0)">
<path fill-rule="evenodd"  fill="rgb(0, 0, 0)"
 d="M16.876,31.001 C9.615,31.001 3.756,25.186 3.756,17.981 C3.756,15.538 4.431,13.256 5.604,11.306 C4.196,10.180 2.409,9.504 0.461,9.504 L0.005,9.504 L0.005,8.599 L0.461,8.599 C4.996,8.599 8.672,4.950 8.672,0.450 L8.672,-0.003 L9.584,-0.003 L9.584,0.450 C9.584,2.590 10.423,4.532 11.783,5.986 C13.349,5.331 15.066,4.960 16.876,4.960 C24.137,4.960 29.996,10.775 29.996,17.981 C29.996,25.151 24.102,31.001 16.876,31.001 ZM9.128,3.285 C8.225,6.005 6.058,8.155 3.318,9.051 C6.058,9.947 8.225,12.097 9.128,14.817 C10.031,12.097 12.198,9.947 14.939,9.051 C12.198,8.155 10.031,6.005 9.128,3.285 ZM16.876,6.031 C15.388,6.031 13.967,6.305 12.652,6.797 C13.829,7.737 15.271,8.361 16.851,8.541 C16.872,8.538 16.891,8.528 16.912,8.528 C17.301,8.528 17.687,8.552 18.069,8.599 L18.251,8.599 L18.251,8.626 C20.765,8.980 23.076,10.317 24.604,12.380 C24.784,12.630 24.712,12.951 24.497,13.129 C24.353,13.200 24.245,13.236 24.137,13.236 C23.958,13.236 23.814,13.165 23.706,13.022 C22.124,10.882 19.572,9.598 16.912,9.598 C16.868,9.598 16.828,9.582 16.787,9.571 C12.729,10.066 9.584,13.492 9.584,17.653 L9.584,18.105 L8.672,18.105 L8.672,17.653 C8.672,15.485 7.814,13.520 6.422,12.060 C5.416,13.806 4.834,15.825 4.834,17.981 C4.834,24.580 10.226,29.931 16.876,29.931 C23.526,29.931 28.918,24.580 28.918,17.981 C28.918,11.381 23.526,6.031 16.876,6.031 ZM25.863,18.516 C25.575,18.516 25.324,18.266 25.324,17.981 C25.324,17.374 25.251,16.768 25.144,16.197 C25.072,15.912 25.251,15.626 25.539,15.555 C25.827,15.484 26.114,15.662 26.186,15.947 C26.186,15.947 26.186,15.947 26.186,15.983 C26.330,16.661 26.402,17.303 26.402,17.981 C26.402,18.266 26.150,18.516 25.863,18.516 Z"/>
</g>
</svg>