<svg
 xmlns="http://www.w3.org/2000/svg"
 xmlns:xlink="http://www.w3.org/1999/xlink"
>
<defs>
<filter id="Filter_0">
    <feFlood flood-color="rgb(147, 147, 147)" flood-opacity="1" result="floodOut" />
    <feComposite operator="atop" in="floodOut" in2="SourceGraphic" result="compOut" />
    <feBlend mode="normal" in="compOut" in2="SourceGraphic" />
</filter>

</defs>
<g filter="url(#Filter_0)">
<path fill-rule="evenodd"  fill="rgb(0, 0, 0)"
 d="M10.544,24.446 C9.554,25.073 8.855,26.213 8.855,27.409 C8.855,29.404 10.486,31.000 12.525,31.000 L23.360,31.000 C25.399,31.000 27.030,29.404 27.030,27.409 C27.030,26.327 26.564,25.358 25.748,24.674 L35.826,15.386 C35.943,15.272 36.001,15.158 36.001,14.987 C36.001,14.759 36.059,9.004 31.690,4.673 C28.545,1.539 24.001,-0.000 18.117,-0.000 C18.059,-0.000 18.059,-0.000 18.000,-0.000 L18.000,-0.000 L18.000,-0.000 C11.942,-0.000 7.223,1.595 4.078,4.729 C0.058,8.718 0.000,13.676 0.000,13.904 C0.000,14.075 0.058,14.189 0.175,14.303 L10.544,24.446 ZM18.525,20.058 L18.525,1.139 C22.661,1.197 26.098,2.108 28.719,3.818 L21.204,20.913 C20.389,20.457 19.515,20.172 18.525,20.058 ZM17.360,20.058 C16.428,20.172 15.496,20.457 14.680,20.913 L6.932,3.818 C9.612,2.108 13.107,1.197 17.301,1.139 L17.301,20.058 L17.360,20.058 ZM17.942,21.198 C20.564,21.198 22.719,23.136 22.952,25.643 L20.505,27.923 C19.107,29.176 17.010,29.176 15.670,27.865 L12.932,25.187 C13.457,22.908 15.554,21.198 17.942,21.198 ZM10.078,27.467 C10.078,26.555 10.602,25.700 11.418,25.301 L14.855,28.663 C15.496,29.290 16.253,29.689 17.010,29.860 L12.525,29.860 C11.185,29.860 10.078,28.777 10.078,27.467 ZM25.865,27.467 C25.865,28.834 24.758,29.917 23.360,29.917 L19.224,29.917 C19.981,29.746 20.680,29.347 21.321,28.834 L24.875,25.586 C25.457,25.985 25.865,26.669 25.865,27.467 ZM34.778,14.816 L24.001,24.731 C23.709,23.535 23.069,22.452 22.137,21.654 L29.651,4.501 C30.059,4.787 30.409,5.128 30.758,5.470 C34.370,9.004 34.719,13.676 34.778,14.816 ZM4.893,5.527 C5.243,5.185 5.651,4.843 6.058,4.501 L13.806,21.654 C12.991,22.338 12.408,23.250 12.059,24.275 L12.000,24.219 L12.000,24.219 L1.165,13.619 C1.223,12.650 1.631,8.718 4.893,5.527 Z"/>
</g>
</svg>